<?xml version="1.0" encoding="utf-8"?>
<!-- Generator: Adobe Illustrator 24.2.3, SVG Export Plug-In . SVG Version: 6.00 Build 0)  -->
<svg version="1.1" id="Warstwa_1" xmlns="http://www.w3.org/2000/svg" xmlns:xlink="http://www.w3.org/1999/xlink" x="0px" y="0px"
	 viewBox="0 0 378 413" style="enable-background:new 0 0 378 413;" xml:space="preserve">
<style type="text/css">
	.st0{fill:#FFFFFF;}
	.st1{fill:#DDDDDD;}
	.st2{fill:none;stroke:#1D1D1B;stroke-miterlimit:10;}
	.st3{fill:#FFFFFF;stroke:#1D1D1B;}
</style>
<polygon class="st0" points="188.9,2.2 376.1,86 189,206.6 1.9,85.3 "/>
<polygon class="st1" points="189,411.1 189,205.9 376.1,86 356,291.4 "/>
<polygon class="st0" points="1.9,85.3 189,205.9 189,411.1 20.9,291 "/>
<polygon class="st2" points="189,2.2 376.1,86 356,291.4 189,411.1 20.9,291 1.9,85.3 "/>
<path class="st3" d="M189,206.6"/>
<path class="st3" d="M189,263.4"/>
<polygon points="189,205.9 45.4,113.5 58.8,291.3 107.8,328.9 103.5,221.2 189,279.6 "/>
<polygon points="189,205.9 332.6,113.5 319.1,291.3 270.2,328.9 274.5,221.2 189,279.6 "/>
</svg>
